<?xml version="1.0" encoding="UTF-8"?>
<svg id="Layer_1" data-name="Layer 1" xmlns="http://www.w3.org/2000/svg" viewBox="0 0 160 160">
  <defs>
    <style>
      .cls-1 {
        fill: #fff;
        stroke: #171b49;
        stroke-miterlimit: 10;
      }

      .cls-2 {
        fill: #4f5370;
      }
    </style>
  </defs>
  <rect class="cls-2" width="160" height="160" rx="9.95" ry="9.95"/>
  <path class="cls-1" d="M117.24,134.12c-10.19,4.81-22.6,7.22-37.24,7.22-11.77,0-22.35-1.67-31.75-5.02-9.4-3.34-17.33-7.95-23.78-13.82-6.46-5.87-11.41-12.76-14.85-20.68-3.44-7.92-5.17-16.46-5.17-25.61s1.72-18.1,5.17-26.13c3.44-8.04,8.39-15.05,14.85-21.03,6.46-5.98,14.38-10.67,23.78-14.08,9.4-3.4,19.98-5.1,31.75-5.1s22.53,1.7,31.86,5.1c9.33,3.4,17.22,8.1,23.68,14.08,6.46,5.98,11.41,13,14.85,21.03,3.44,8.04,5.17,16.75,5.17,26.13s-1.72,17.66-5.17,25.52c-3.44,7.86-8.39,14.78-14.85,20.77l19.16,14.25-15.71,13.37-21.74-16.01ZM112.29,105.08c2.87-3.17,5.17-7.1,6.89-11.79,1.72-4.69,2.58-10.38,2.58-17.07,0-5.51-.75-10.85-2.26-16.02-1.51-5.16-3.91-9.77-7.21-13.81-3.3-4.05-7.61-7.27-12.91-9.68-5.31-2.4-11.77-3.61-19.37-3.61s-14.06,1.2-19.37,3.61c-5.31,2.41-9.62,5.63-12.91,9.68-3.3,4.05-5.7,8.65-7.21,13.81-1.51,5.16-2.26,10.5-2.26,16.02s.75,10.41,2.26,15.4c1.51,4.99,3.91,9.48,7.21,13.46,3.3,3.99,7.6,7.19,12.91,9.59,5.31,2.41,11.76,3.61,19.37,3.61,3.58,0,6.31-.12,8.18-.35,1.86-.23,3.66-.7,5.38-1.41l-14.42-10.73,15.71-13.73,17.43,13.02Z"/>
</svg>