<?xml version="1.0" encoding="UTF-8"?>
<svg id="Layer_1" data-name="Layer 1" xmlns="http://www.w3.org/2000/svg" viewBox="0 0 150.45 150.27">
  <defs>
    <style>
      .cls-1 {
        fill: #fff;
        opacity: .16;
      }

      .cls-2 {
        fill: #ffb000;
      }

      .cls-3 {
        fill: #0080ff;
      }
    </style>
  </defs>
  <path class="cls-2" d="M46.3,128c-3.5.92-6.09,1.29-9.41,1.29-10.88,0-19.74-4.06-25.27-11.44C3.14,106.24,0,91.67,0,64.74S3.14,23.06,11.8,11.44C17.15,4.06,26.19,0,37.07,0s19.74,4.06,25.08,11.44c8.48,11.44,11.8,26.19,11.8,52.57s-6.77,45.01-14.34,57l10.06,5.71-31.02,23.56,7.64-22.27ZM24.53,64.55c0,33.75,2.95,43.71,12.54,43.71s12.36-10.33,12.36-43.16-2.77-44.27-12.54-44.27-12.36,10.14-12.36,43.71Z"/>
  <path class="cls-3" d="M112.46,4.73c23.24,0,35.97,10.51,35.97,29.7,0,14.94-7.38,23.98-21.76,26.93,16.6,4.43,23.79,13.65,23.79,30.62,0,23.24-14.57,35.78-41.68,35.78h-28.96V4.73h32.65ZM108.77,53.98c9.22,0,15.68-6.27,15.68-15.49s-6.46-15.31-15.68-15.31h-4.98v30.8h4.98ZM108.77,108.76c10.7,0,17.15-6.82,17.15-18.26s-6.46-18.08-17.15-18.08h-4.98v36.33h4.98Z"/>
  <path class="cls-1" d="M1.68,70.38l20.84,1.12s-2.59,40.15,14.46,38.54,15.03-38.54,15.03-38.54h20s-5.86,40.15-13.13,45c-.61,4.65,0,4.44,6.26,8.28-4.24,3.84-20.4,17.17-20.4,17.17l7.88-18.79s-14.75,2.83-20.81,1.01-25.52-2.53-30.14-53.79Z"/>
  <path class="cls-1" d="M82.92,71.5h17.37v38.74s19.74,2.88,25.32-6.06c12.86-20.61-2.29-32.68-2.29-32.68h17.17s16.77,19.14-2.22,41.36c-11.75,13.75-51.11,8.48-52.93,8.28s-2.22-41.72-2.42-49.65Z"/>
</svg>